<svg xmlns="http://www.w3.org/2000/svg" xmlns:xlink="http://www.w3.org/1999/xlink" width="1080" zoomAndPan="magnify" viewBox="0 0 810 809.999993" height="1080" preserveAspectRatio="xMidYMid meet" version="1.0"><defs><clipPath id="192a997a2e"><path d="M 85 68.789062 L 730 68.789062 L 730 713 L 85 713 Z M 85 68.789062 " clip-rule="nonzero"/></clipPath><clipPath id="487997787b"><path d="M 518.265625 88.199219 C 553.414062 101.042969 586.074219 119.878906 614.796875 143.871094 L 614.808594 143.878906 C 643.53125 167.871094 667.804688 196.734375 686.515625 229.144531 L 687.183594 230.300781 C 705.875 262.679688 718.726562 298.09375 725.148438 334.925781 C 731.570312 371.773438 731.597656 409.445312 725.234375 446.300781 L 725.105469 447.042969 C 718.714844 484.042969 705.753906 519.597656 686.835938 552.027344 L 686.734375 552.199219 C 667.875 584.53125 643.535156 613.335938 614.808594 637.335938 L 614.796875 637.34375 C 586.074219 661.335938 553.414062 680.167969 518.265625 693.015625 C 483.121094 705.855469 445.992188 712.425781 408.578125 712.425781 L 407.273438 712.425781 C 369.859375 712.425781 332.734375 705.855469 297.589844 693.015625 C 262.4375 680.167969 229.777344 661.335938 201.054688 637.34375 L 201.042969 637.335938 C 172.316406 613.335938 147.976562 584.53125 129.117188 552.199219 L 129.015625 552.027344 C 110.097656 519.597656 97.136719 484.042969 90.75 447.042969 L 90.621094 446.300781 C 84.253906 409.445312 84.28125 371.773438 90.707031 334.925781 C 97.125 298.09375 109.976562 262.679688 128.667969 230.300781 L 129.335938 229.144531 C 148.046875 196.734375 172.320312 167.871094 201.042969 143.878906 L 201.054688 143.871094 C 229.777344 119.878906 262.4375 101.042969 297.589844 88.199219 C 332.734375 75.359375 369.859375 68.789062 407.273438 68.789062 L 408.578125 68.789062 C 445.992188 68.789062 483.121094 75.359375 518.265625 88.199219 Z M 518.265625 88.199219 " clip-rule="nonzero"/></clipPath><clipPath id="d4c43d0223"><path d="M 0 0.789062 L 645 0.789062 L 645 644.558594 L 0 644.558594 Z M 0 0.789062 " clip-rule="nonzero"/></clipPath><clipPath id="c26eb8ee63"><path d="M 433.265625 20.199219 C 468.414062 33.042969 501.074219 51.878906 529.796875 75.871094 L 529.808594 75.878906 C 558.53125 99.871094 582.804688 128.734375 601.515625 161.144531 L 602.183594 162.300781 C 620.875 194.679688 633.726562 230.09375 640.148438 266.925781 C 646.570312 303.773438 646.597656 341.445312 640.234375 378.300781 L 640.105469 379.042969 C 633.714844 416.042969 620.753906 451.597656 601.835938 484.027344 L 601.734375 484.199219 C 582.875 516.53125 558.535156 545.335938 529.808594 569.335938 L 529.796875 569.34375 C 501.074219 593.335938 468.414062 612.167969 433.265625 625.015625 C 398.121094 637.855469 360.992188 644.425781 323.578125 644.425781 L 322.273438 644.425781 C 284.859375 644.425781 247.734375 637.855469 212.589844 625.015625 C 177.4375 612.167969 144.777344 593.335938 116.054688 569.34375 L 116.042969 569.335938 C 87.316406 545.335938 62.976562 516.53125 44.117188 484.199219 L 44.015625 484.027344 C 25.097656 451.597656 12.136719 416.042969 5.75 379.042969 L 5.621094 378.300781 C -0.746094 341.445312 -0.71875 303.773438 5.707031 266.925781 C 12.125 230.09375 24.976562 194.679688 43.667969 162.300781 L 44.335938 161.144531 C 63.046875 128.734375 87.320312 99.871094 116.042969 75.878906 L 116.054688 75.871094 C 144.777344 51.878906 177.4375 33.042969 212.589844 20.199219 C 247.734375 7.359375 284.859375 0.789062 322.273438 0.789062 L 323.578125 0.789062 C 360.992188 0.789062 398.121094 7.359375 433.265625 20.199219 Z M 433.265625 20.199219 " clip-rule="nonzero"/></clipPath><clipPath id="41885eb3b2"><rect x="0" width="645" y="0" height="645"/></clipPath><clipPath id="ce2a1e86ea"><path d="M 85 68.792969 L 730 68.792969 L 730 712.425781 L 85 712.425781 Z M 85 68.792969 " clip-rule="nonzero"/></clipPath><clipPath id="a65105a194"><path d="M 518.261719 88.203125 C 553.410156 101.046875 586.074219 119.882812 614.792969 143.875 L 614.804688 143.882812 C 643.527344 167.875 667.800781 196.734375 686.511719 229.144531 L 687.179688 230.300781 C 705.871094 262.679688 718.722656 298.097656 725.140625 334.929688 C 731.5625 371.773438 731.59375 409.449219 725.226562 446.300781 L 725.097656 447.042969 C 718.710938 484.042969 705.75 519.597656 686.832031 552.027344 L 686.730469 552.199219 C 667.871094 584.53125 643.53125 613.335938 614.804688 637.332031 L 614.792969 637.34375 C 586.074219 661.332031 553.410156 680.167969 518.261719 693.011719 C 483.117188 705.855469 445.992188 712.425781 408.574219 712.425781 L 407.273438 712.425781 C 369.855469 712.425781 332.730469 705.855469 297.585938 693.011719 C 262.4375 680.167969 229.773438 661.332031 201.054688 637.34375 L 201.042969 637.332031 C 172.316406 613.335938 147.976562 584.53125 129.117188 552.199219 L 129.015625 552.027344 C 110.097656 519.597656 97.136719 484.042969 90.75 447.042969 L 90.621094 446.300781 C 84.253906 409.449219 84.28125 371.773438 90.707031 334.929688 C 97.125 298.097656 109.976562 262.679688 128.667969 230.300781 L 129.335938 229.144531 C 148.046875 196.734375 172.320312 167.875 201.042969 143.882812 L 201.054688 143.875 C 229.773438 119.882812 262.4375 101.046875 297.585938 88.203125 C 332.730469 75.363281 369.855469 68.792969 407.273438 68.792969 L 408.574219 68.792969 C 445.992188 68.792969 483.117188 75.363281 518.261719 88.203125 Z M 518.261719 88.203125 " clip-rule="nonzero"/></clipPath><clipPath id="ce29fbc9c6"><path d="M 259 228 L 611 228 L 611 569 L 259 569 Z M 259 228 " clip-rule="nonzero"/></clipPath><clipPath id="5da56d04ed"><path d="M 280.21875 201.714844 L 616.789062 388.140625 L 460.164062 670.910156 L 123.59375 484.484375 Z M 280.21875 201.714844 " clip-rule="nonzero"/></clipPath><clipPath id="4b7e2bab89"><path d="M 280.21875 201.714844 L 616.789062 388.140625 L 460.164062 670.910156 L 123.59375 484.484375 Z M 280.21875 201.714844 " clip-rule="nonzero"/></clipPath></defs><g clip-path="url(#192a997a2e)"><g clip-path="url(#487997787b)"><g transform="matrix(1, 0, 0, 1, 85, 68)"><g clip-path="url(#41885eb3b2)"><g clip-path="url(#d4c43d0223)"><g clip-path="url(#c26eb8ee63)"><path fill="#eeeeee" d="M -4 0.789062 L 650.730469 0.789062 L 650.730469 645.445312 L -4 645.445312 Z M -4 0.789062 " fill-opacity="1" fill-rule="nonzero"/></g></g></g></g></g></g><g clip-path="url(#ce2a1e86ea)"><g clip-path="url(#a65105a194)"><path stroke-linecap="butt" transform="matrix(0.75, 0, 0, 0.75, 80.999999, 68.792587)" fill="none" stroke-linejoin="miter" d="M 583.015655 25.880719 C 629.880241 43.00572 673.432326 68.120304 711.723995 100.109889 L 711.73962 100.120306 C 750.036497 132.109891 782.401082 170.589059 807.349 213.802603 L 808.239625 215.34427 C 833.161501 258.516147 850.296919 305.740108 858.854211 354.849485 C 867.416711 403.974488 867.458378 454.208865 858.968794 503.344284 L 858.796919 504.333868 C 850.281294 553.667204 833.000043 601.073456 807.776083 644.313041 L 807.640666 644.542208 C 782.494832 687.651585 750.041705 726.057837 711.73962 758.052631 L 711.723995 758.068256 C 673.432326 790.052632 629.880241 815.167217 583.015655 832.292218 C 536.156278 849.417218 486.656275 858.177636 436.765648 858.177636 L 435.031273 858.177636 C 385.140645 858.177636 335.640643 849.417218 288.781265 832.292218 C 241.91668 815.167217 198.364594 790.052632 160.072925 758.068256 L 160.0573 758.052631 C 121.755215 726.057837 89.302089 687.651585 64.156254 644.542208 L 64.020837 644.313041 C 38.796878 601.073456 21.515627 553.667204 13.000001 504.333868 L 12.828126 503.344284 C 4.338543 454.208865 4.375001 403.974488 12.94271 354.849485 C 21.500002 305.740108 38.635419 258.516147 63.557296 215.34427 L 64.447921 213.802603 C 89.395839 170.589059 121.760424 132.109891 160.0573 100.120306 L 160.072925 100.109889 C 198.364594 68.120304 241.91668 43.00572 288.781265 25.880719 C 335.640643 8.760926 385.140645 0.000509081 435.031273 0.000509081 L 436.765648 0.000509081 C 486.656275 0.000509081 536.156278 8.760926 583.015655 25.880719 Z M 583.015655 25.880719 " stroke="#3b86f6" stroke-width="70" stroke-opacity="1" stroke-miterlimit="4"/></g></g><g clip-path="url(#ce29fbc9c6)"><g clip-path="url(#5da56d04ed)"><g clip-path="url(#4b7e2bab89)"><path fill="#3b86f6" d="M 610.535156 384.777344 L 343.351562 389.523438 C 343.046875 388.859375 342.703125 388.214844 342.320312 387.589844 L 262.09375 257.03125 C 261.558594 256.164062 261.097656 255.257812 260.707031 254.3125 C 260.320312 253.371094 260.007812 252.402344 259.777344 251.410156 C 259.542969 250.414062 259.394531 249.410156 259.320312 248.394531 C 259.25 247.375 259.261719 246.359375 259.355469 245.34375 C 259.445312 244.328125 259.621094 243.324219 259.875 242.335938 C 260.128906 241.347656 260.457031 240.386719 260.867188 239.453125 C 261.273438 238.515625 261.753906 237.621094 262.308594 236.761719 C 262.859375 235.90625 263.476562 235.097656 264.160156 234.339844 C 264.84375 233.582031 265.582031 232.882812 266.375 232.242188 C 267.171875 231.601562 268.011719 231.03125 268.898438 230.527344 C 269.785156 230.023438 270.707031 229.589844 271.664062 229.234375 C 272.617188 228.878906 273.597656 228.601562 274.597656 228.402344 C 275.597656 228.203125 276.609375 228.085938 277.628906 228.050781 C 278.648438 228.015625 279.664062 228.058594 280.675781 228.1875 C 281.6875 228.3125 282.683594 228.519531 283.664062 228.808594 C 284.640625 229.09375 285.589844 229.457031 286.511719 229.898438 Z M 343.621094 404.382812 C 343.335938 405.058594 343.011719 405.714844 342.652344 406.351562 L 267.121094 539.679688 C 266.617188 540.570312 266.191406 541.492188 265.835938 542.445312 C 265.480469 543.402344 265.207031 544.382812 265.007812 545.382812 C 264.8125 546.382812 264.695312 547.394531 264.660156 548.414062 C 264.625 549.433594 264.675781 550.449219 264.800781 551.460938 C 264.929688 552.472656 265.140625 553.46875 265.429688 554.445312 C 265.71875 555.421875 266.082031 556.371094 266.523438 557.292969 C 266.964844 558.210938 267.476562 559.089844 268.058594 559.925781 C 268.640625 560.765625 269.289062 561.550781 269.996094 562.285156 C 270.707031 563.015625 271.46875 563.6875 272.285156 564.300781 C 273.101562 564.910156 273.964844 565.453125 274.867188 565.925781 C 275.769531 566.398438 276.707031 566.792969 277.675781 567.117188 C 278.644531 567.4375 279.628906 567.679688 280.636719 567.84375 C 281.644531 568.007812 282.65625 568.089844 283.675781 568.089844 C 284.699219 568.089844 285.710938 568.007812 286.71875 567.84375 C 287.726562 567.683594 288.710938 567.441406 289.679688 567.117188 C 290.648438 566.796875 291.585938 566.402344 292.488281 565.929688 L 610.796875 399.636719 Z M 343.621094 404.382812 " fill-opacity="1" fill-rule="nonzero"/></g></g></g></svg>